# xmcd
#
# Track frame offsets: 
#        183
#        13855
#        26393
#        40990
#        51728
#        65720
#        78803
#        89800
#        101825
#        119120
#        129590
#        149668
#        159903
#        177158
#        189688
#
# Disc length: 2999 seconds
#
# Revision: 0
# Processed by: cddbd v1.5.1PL2 Copyright (c) Steve Scherf et al.
# Submitted via: ExactAudioCopy v0.95b2
#
DISCID=e10bb50f
DTITLE=Various Artist - Johnny Otis Show Live in Los Angeles 1970
DYEAR=1900
DGENRE=Blues
TTITLE0=Joe Turner - Shake Rattle and Roll
TTITLE1=Joe Turner - Chains of Love
TTITLE2=Roy Milton - R.M. Blues
TTITLE3=Roy Milton - Baby You Don't Know
TTITLE4=Little Esther Phillips - Misery
TTITLE5=Little Esther Phillips - Confessin' Blues
TTITLE6=Johnny Otis - Livin' In Misery
TTITLE7=Johnny Otis - Willie And The Hand Jive
TTITLE8=Eddie Cleanhead Vinson - Cleanhead Blues
TTITLE9=Eddie Cleanhead Vinson - Kidney Stew Blues
TTITLE10=Charles Brown - Driftin' Blues
TTITLE11=Charles Brown - Please Don't Drive Me Away
TTITLE12=Lowell Fulsom - Reconsider Baby
TTITLE13=Lowell Fulsom - Tramp
TTITLE14=T Bone Walker and Shuggie Otis - Mistreatin' Blues
EXTD=
EXTT0=
EXTT1=
EXTT2=
EXTT3=
EXTT4=
EXTT5=
EXTT6=
EXTT7=
EXTT8=
EXTT9=
EXTT10=
EXTT11=
EXTT12=
EXTT13=
EXTT14=
PLAYORDER=
